<svg width="30" height="31" viewBox="0 0 30 31" fill="none" xmlns="http://www.w3.org/2000/svg">
<path d="M14.0625 23C14.0625 23.2486 14.1613 23.4871 14.3371 23.6629C14.5129 23.8387 14.7514 23.9375 15 23.9375C15.2486 23.9375 15.4871 23.8387 15.6629 23.6629C15.8387 23.4871 15.9375 23.2486 15.9375 23V19.25C15.9375 19.0014 15.8387 18.7629 15.6629 18.5871C15.4871 18.4113 15.2486 18.3125 15 18.3125C14.7514 18.3125 14.5129 18.4113 14.3371 18.5871C14.1613 18.7629 14.0625 19.0014 14.0625 19.25V23Z" fill="#AAAAAA"/>
<path fill-rule="evenodd" clip-rule="evenodd" d="M15 2.0625C14.115 2.0625 13.3112 2.31625 12.4375 2.74C11.595 3.15 10.62 3.755 9.40375 4.51L6.82 6.11375C5.67 6.82875 4.74625 7.40125 4.03625 7.945C3.3 8.5075 2.735 9.0825 2.32625 9.82875C1.91875 10.5725 1.73625 11.365 1.6475 12.3013C1.5625 13.2075 1.5625 14.3175 1.5625 15.7087V17.725C1.5625 20.105 1.5625 21.9837 1.75375 23.4525C1.94875 24.9587 2.36125 26.175 3.29125 27.1362C4.225 28.1025 5.4125 28.535 6.885 28.7388C8.31 28.9375 10.1325 28.9375 12.4275 28.9375H17.5725C19.8675 28.9375 21.69 28.9375 23.115 28.7388C24.5863 28.535 25.775 28.1025 26.71 27.1362C27.6388 26.175 28.0512 24.9587 28.2475 23.4525C28.4375 21.9837 28.4375 20.105 28.4375 17.725V15.7087C28.4375 14.3175 28.4375 13.2087 28.3525 12.3013C28.265 11.3638 28.0812 10.5725 27.6737 9.82875C27.265 9.0825 26.6987 8.50875 25.9637 7.945C25.2537 7.4 24.3313 6.82875 23.18 6.11375L20.5962 4.51C19.38 3.755 18.405 3.15 17.5612 2.74C16.69 2.315 15.8862 2.0625 15 2.0625ZM10.35 6.13C11.6187 5.3425 12.5125 4.79 13.2588 4.42625C13.985 4.0725 14.5 3.9375 15 3.9375C15.5 3.9375 16.015 4.0725 16.7412 4.42625C17.4887 4.78875 18.3813 5.3425 19.65 6.13L22.15 7.68125C23.3512 8.4275 24.195 8.95125 24.825 9.43375C25.4363 9.9025 25.7875 10.2887 26.0287 10.7287C26.27 11.17 26.4112 11.6863 26.485 12.4763C26.5612 13.2863 26.5625 14.3075 26.5625 15.755V17.6562C26.5625 20.1187 26.56 21.8762 26.3875 23.21C26.2175 24.52 25.8963 25.28 25.3625 25.8337C24.8313 26.3825 24.1087 26.7088 22.8575 26.8825C21.575 27.06 19.8837 27.0625 17.5 27.0625H12.5C10.115 27.0625 8.425 27.06 7.1425 26.8825C5.89125 26.7075 5.16875 26.3825 4.63875 25.8325C4.10375 25.28 3.7825 24.52 3.61375 23.21C3.43875 21.8762 3.4375 20.12 3.4375 17.6562V15.755C3.4375 14.3075 3.4375 13.2863 3.515 12.4763C3.58875 11.6863 3.73 11.17 3.97125 10.7287C4.2125 10.2887 4.56375 9.9025 5.17625 9.43375C5.805 8.95125 6.64875 8.4275 7.85 7.68125L10.35 6.13Z" fill="#AAAAAA"/>
</svg>
