<svg width="30" height="31" viewBox="0 0 30 31" fill="none" xmlns="http://www.w3.org/2000/svg">
<path d="M24.2875 16.725C24.3375 16.325 24.375 15.925 24.375 15.5C24.375 15.075 24.3375 14.675 24.2875 14.275L26.925 12.2125C27.1625 12.025 27.225 11.6875 27.075 11.4125L24.575 7.08753C24.5014 6.95856 24.3841 6.86006 24.2444 6.80966C24.1047 6.75927 23.9516 6.76029 23.8125 6.81253L20.7 8.06253C20.05 7.56253 19.35 7.15003 18.5875 6.83753L18.1125 3.52503C18.0914 3.37818 18.0176 3.24401 17.9049 3.14746C17.7923 3.0509 17.6484 2.99851 17.5 3.00003H12.5C12.1875 3.00003 11.925 3.22503 11.8875 3.52503L11.4125 6.83753C10.65 7.15003 9.95004 7.57503 9.30004 8.06253L6.18754 6.81253C6.11489 6.78863 6.03902 6.77599 5.96254 6.77503C5.75004 6.77503 5.53754 6.88753 5.42504 7.08753L2.92504 11.4125C2.76254 11.6875 2.83754 12.025 3.07504 12.2125L5.71254 14.275C5.66254 14.675 5.62504 15.0875 5.62504 15.5C5.62504 15.9125 5.66254 16.325 5.71254 16.725L3.07504 18.7875C2.83754 18.975 2.77504 19.3125 2.92504 19.5875L5.42504 23.9125C5.49873 24.0415 5.61594 24.14 5.75567 24.1904C5.89539 24.2408 6.0485 24.2398 6.18754 24.1875L9.30004 22.9375C9.95004 23.4375 10.65 23.85 11.4125 24.1625L11.8875 27.475C11.925 27.775 12.1875 28 12.5 28H17.5C17.8125 28 18.075 27.775 18.1125 27.475L18.5875 24.1625C19.35 23.85 20.05 23.425 20.7 22.9375L23.8125 24.1875C23.8875 24.2125 23.9625 24.225 24.0375 24.225C24.25 24.225 24.4625 24.1125 24.575 23.9125L27.075 19.5875C27.225 19.3125 27.1625 18.975 26.925 18.7875L24.2875 16.725ZM21.8125 14.5875C21.8625 14.975 21.875 15.2375 21.875 15.5C21.875 15.7625 21.85 16.0375 21.8125 16.4125L21.6375 17.825L22.75 18.7L24.1 19.75L23.225 21.2625L21.6375 20.625L20.3375 20.1L19.2125 20.95C18.675 21.35 18.1625 21.65 17.65 21.8625L16.325 22.4L16.125 23.8125L15.875 25.5H14.125L13.8875 23.8125L13.6875 22.4L12.3625 21.8625C11.825 21.6375 11.325 21.35 10.825 20.975L9.68754 20.1L8.36254 20.6375L6.77504 21.275L5.90004 19.7625L7.25004 18.7125L8.36254 17.8375L8.18754 16.425C8.15004 16.0375 8.12504 15.75 8.12504 15.5C8.12504 15.25 8.15004 14.9625 8.18754 14.5875L8.36254 13.175L7.25004 12.3L5.90004 11.25L6.77504 9.73753L8.36254 10.375L9.66254 10.9L10.7875 10.05C11.325 9.65003 11.8375 9.35003 12.35 9.13753L13.675 8.60003L13.875 7.18753L14.125 5.50003H15.8625L16.1 7.18753L16.3 8.60003L17.625 9.13753C18.1625 9.36253 18.6625 9.65003 19.1625 10.025L20.3 10.9L21.625 10.3625L23.2125 9.72503L24.0875 11.2375L22.75 12.3L21.6375 13.175L21.8125 14.5875ZM15 10.5C12.2375 10.5 10 12.7375 10 15.5C10 18.2625 12.2375 20.5 15 20.5C17.7625 20.5 20 18.2625 20 15.5C20 12.7375 17.7625 10.5 15 10.5ZM15 18C13.625 18 12.5 16.875 12.5 15.5C12.5 14.125 13.625 13 15 13C16.375 13 17.5 14.125 17.5 15.5C17.5 16.875 16.375 18 15 18Z" fill="#AAAAAA"/>
</svg>
